<svg width="231" height="229" viewBox="0 0 231 229" fill="none" xmlns="http://www.w3.org/2000/svg">
<g clip-path="url(#clip0)">
<path d="M31.9145 106.731H14.6908L0 0H18.9967L30.3947 87.1168H36.727L48.125 13.2458H74.4671L85.8651 87.1168H92.1974L103.849 0H122.592L107.901 106.731H92.1974H95.4901H73.2007L63.5757 34.6429H60.0296L50.4046 106.731H30.648H31.9145Z" fill="white"/>
<path d="M211.244 0H230.24V106.731H194.78L151.72 19.1046H147.161V106.731H128.165V0H162.612L205.418 88.3904H210.99V0H211.244Z" fill="white"/>
<path d="M106.382 122.269V137.553H13.4243V122.269H106.382ZM50.4046 122.269H69.148V229H50.4046V122.269Z" fill="white"/>
<path d="M127.405 122.779H146.401V229H127.405V122.779ZM183.128 194.612C182.875 194.612 182.622 194.612 182.622 194.866C182.368 194.866 182.115 195.121 182.115 195.376C181.862 195.631 181.609 195.631 181.355 195.885C181.102 195.885 180.849 196.14 180.595 196.14H139.056V180.856H182.368C188.194 180.856 193.007 180.092 196.806 178.819C200.605 177.545 203.391 175.507 205.418 173.215C207.191 170.922 208.204 168.12 208.204 164.809V154.365C208.204 149.016 206.178 144.94 201.872 142.138C197.566 139.336 191.234 138.062 182.622 138.062H139.056L138.043 122.779H157.039C161.345 122.779 165.398 122.779 169.197 122.779C173.25 122.779 181.609 122.779 184.648 122.779C193.26 122.779 200.859 124.052 207.191 126.6C213.523 129.147 218.589 132.968 221.882 137.553C225.428 142.393 226.947 147.742 226.947 154.11V164.554C226.947 169.648 225.174 174.488 221.882 179.073C218.336 183.658 213.27 187.479 206.684 190.536C200.099 193.593 192.247 194.612 183.128 194.612ZM210.737 187.479V195.885H177.556V187.479H210.737ZM198.832 188.753H217.829L231 229H212.003L198.832 188.753Z" fill="white"/>
</g>
<defs>
<clipPath id="clip0">
<rect width="231" height="229" fill="white"/>
</clipPath>
</defs>
</svg>
