<?xml version="1.0" encoding="utf-8"?>
<!-- Generator: Adobe Illustrator 23.0.1, SVG Export Plug-In . SVG Version: 6.00 Build 0)  -->
<svg version="1.1" id="Ebene_1" xmlns="http://www.w3.org/2000/svg" xmlns:xlink="http://www.w3.org/1999/xlink" x="0px" y="0px"
	 viewBox="0 0 28.3 28.3" enable-background="new 0 0 28.3 28.3" xml:space="preserve">
<g>
	<path d="M13.3,12.1h-1.7l-1.2-3.2H5.2L4,12.1H2.3L7,0h1.7L13.3,12.1z M7.6,2.4l-1.9,5h4.1l-1.9-5L7.7,1.7L7.6,2.4z"/>
	<path d="M21.1,1.9c-0.2,0.2-0.3,0.5-0.3,0.9v0.5h4v1.5h-4v7.3h-1.6V4.8h-3.1V3.3h3.1V2.4c0-0.4,0.1-0.8,0.4-1.1
		c0.2-0.4,0.6-0.7,1-0.9C21,0.1,21.4,0,21.9,0c0.4,0,0.9,0,1.6,0c0.7,0,1.2,0.1,1.3,0.1v1.5c-1.5-0.1-2.5-0.1-2.8-0.1
		C21.6,1.5,21.2,1.6,21.1,1.9z"/>
	<path d="M5.4,27.7c-0.7-0.4-1.3-1-1.7-1.7c-0.4-0.7-0.6-1.5-0.6-2.3c0-0.8,0.2-1.6,0.6-2.3c0.4-0.7,1-1.3,1.7-1.7
		c0.7-0.4,1.5-0.6,2.3-0.6s1.6,0.2,2.3,0.6c0.7,0.4,1.3,1,1.7,1.7c0.4,0.7,0.6,1.5,0.6,2.3c0,0.8-0.2,1.6-0.6,2.3
		c-0.4,0.7-1,1.3-1.7,1.7c-0.7,0.4-1.5,0.6-2.3,0.6S6.2,28.1,5.4,27.7z M4.9,17.7c-0.3-0.3-0.4-0.6-0.4-0.9c0-0.4,0.1-0.7,0.4-1
		c0.3-0.3,0.6-0.4,0.9-0.4c0.4,0,0.7,0.1,0.9,0.4c0.3,0.3,0.4,0.6,0.4,1c0,0.4-0.1,0.7-0.4,0.9c-0.3,0.3-0.6,0.4-0.9,0.4
		C5.5,18.1,5.2,18,4.9,17.7z M9.3,26.4c0.5-0.3,0.9-0.6,1.1-1.1c0.3-0.5,0.4-1,0.4-1.6c0-0.6-0.1-1.1-0.4-1.6
		c-0.3-0.5-0.7-0.8-1.1-1.1c-0.5-0.3-1-0.4-1.5-0.4s-1,0.1-1.5,0.4c-0.5,0.3-0.9,0.6-1.1,1.1c-0.3,0.5-0.4,1-0.4,1.6
		c0,0.6,0.1,1.1,0.4,1.6c0.3,0.5,0.7,0.9,1.1,1.1c0.5,0.3,1,0.4,1.5,0.4S8.8,26.7,9.3,26.4z M8.8,17.7c-0.3-0.3-0.4-0.6-0.4-0.9
		c0-0.4,0.1-0.7,0.4-1c0.3-0.3,0.6-0.4,0.9-0.4c0.4,0,0.7,0.1,0.9,0.4c0.3,0.3,0.4,0.6,0.4,1c0,0.4-0.1,0.7-0.4,0.9
		c-0.3,0.3-0.6,0.4-0.9,0.4C9.3,18.1,9,18,8.8,17.7z"/>
	<path d="M24.2,28.1l-3-5.1h-3.4v5.1h-1.6V16h5.7c0.7,0,1.3,0.2,1.9,0.5c0.5,0.3,0.9,0.7,1.2,1.3c0.3,0.5,0.4,1.1,0.4,1.8
		c0,0.8-0.2,1.4-0.7,2c-0.5,0.6-1.1,1-1.8,1.2l3.3,5.3H24.2z M17.7,17.6v3.9h3.8c0.4,0,0.7-0.1,1.1-0.2c0.3-0.2,0.6-0.4,0.8-0.7
		c0.2-0.3,0.3-0.6,0.3-1c0-0.6-0.2-1.1-0.5-1.5c-0.3-0.4-0.8-0.6-1.4-0.6H17.7z"/>
</g>
</svg>
