<svg width="213" height="57" viewBox="0 0 213 57" fill="none" xmlns="http://www.w3.org/2000/svg">
<path d="M9.5479 23.1549C7.91112 23.1549 6.27434 22.9825 4.58299 22.6376C2.89165 22.2928 1.41855 21.833 0.218238 21.2582V19.1316H0.491035C1.63678 19.7638 3.05533 20.2811 4.69211 20.6259C6.3289 21.0283 7.96568 21.2007 9.5479 21.2007C11.6757 21.2007 13.4216 20.9708 14.7856 20.5685C16.1496 20.1661 17.1317 19.5914 17.7318 18.8442C18.332 18.1545 18.6593 17.2923 18.6593 16.3727C18.6593 15.683 18.4957 15.1082 18.1137 14.5909C17.7318 14.0736 17.1862 13.7288 16.477 13.4414C15.7677 13.154 14.8402 12.9816 13.749 12.9241C13.0943 12.8666 12.4396 12.8092 11.7303 12.7517C11.021 12.6942 10.2572 12.6367 9.49335 12.5793C8.94775 12.5218 8.45672 12.5218 7.96568 12.4643C7.47465 12.4068 6.98361 12.4068 6.54713 12.3494C5.23771 12.2344 4.09196 12.0045 3.10989 11.6022C2.12782 11.1998 1.36399 10.6251 0.818392 9.8204C0.272797 9.07321 0 8.09611 0 7.00406C0 5.79706 0.381916 4.70501 1.14575 3.78539C1.90958 2.86577 3.05533 2.17605 4.52844 1.71624C6.00154 1.25643 7.91112 1.14148 10.0935 1.14148C11.1847 1.14148 12.2759 1.25643 13.4216 1.42886C14.5674 1.60129 15.604 1.8312 16.5861 2.11858C17.5681 2.40596 18.2774 2.69334 18.823 2.92325V4.76249H18.6048C17.6227 4.2452 16.3678 3.84287 14.8402 3.49801C13.3125 3.15315 11.7303 2.98072 10.0935 2.98072C8.12936 2.98072 6.54713 3.15315 5.29227 3.55548C4.0374 3.95782 3.16445 4.36015 2.61885 4.99239C2.07326 5.62463 1.80046 6.31435 1.80046 7.11902C1.80046 7.86621 1.96414 8.44097 2.34606 8.95826C2.72797 9.47554 3.27357 9.8204 4.0374 10.1078C4.74667 10.3952 5.67418 10.5676 6.71081 10.6251C7.03817 10.6251 7.36553 10.6825 7.74744 10.6825C8.12936 10.6825 8.45672 10.74 8.83863 10.74C9.65702 10.7975 10.53 10.855 11.4029 10.9125C12.2759 10.9699 13.0943 11.0274 13.9127 11.1424C15.4403 11.2573 16.7498 11.5447 17.7318 12.0045C18.7139 12.4643 19.4232 13.0391 19.9142 13.7863C20.4052 14.5335 20.6235 15.3956 20.6235 16.4302C20.6235 17.8096 20.2416 19.0166 19.4232 19.9937C18.6048 20.9708 17.4045 21.7755 15.7131 22.2928C14.0218 22.81 11.9485 23.1549 9.5479 23.1549Z" fill="black"/>
<path d="M25.752 1.8291H27.4979V22.4631H25.752V1.8291ZM40.3738 11.0828V12.8646H27.1159V11.0828H40.3738ZM44.684 1.8291V3.61087H27.1705V1.8291H44.684ZM44.684 20.6814V22.4631H27.1705V20.6814H44.684Z" fill="black"/>
<path d="M50.6858 1.8291H52.4317V22.4631H50.6858V1.8291ZM66.017 22.4631H58.4332C56.851 22.4631 55.3779 22.4631 54.123 22.4631C52.8682 22.4631 51.8861 22.4631 51.2314 22.4631L51.8315 20.6814H66.1807C67.1627 20.6814 68.0357 20.5089 68.745 20.1641C69.4542 19.8192 69.9998 19.3594 70.3817 18.7272C70.7637 18.0949 70.9273 17.4627 70.9273 16.7155C70.9273 16.0258 70.7637 15.3935 70.4363 14.7613C70.1089 14.1291 69.5633 13.6118 68.7995 13.152C68.0357 12.7496 67.1627 12.5197 66.0715 12.5197H58.9788C57.6694 12.5197 56.4145 12.5197 55.2142 12.5197C53.9594 12.5197 52.8682 12.5197 51.8315 12.5197L51.6133 11.0828C51.777 11.0828 51.9407 11.0828 52.2135 11.0828C52.4862 11.0828 52.759 11.0828 53.0864 11.1403C56.2509 11.2552 59.0334 11.3127 61.434 11.3127C63.8346 11.3127 65.3623 11.1403 65.9079 10.7954C67.1627 10.7954 68.3085 11.0253 69.3997 11.4851C70.4363 11.945 71.3093 12.6347 71.9094 13.4968C72.5096 14.4164 72.8369 15.451 72.8369 16.658C72.8369 17.865 72.5641 18.8421 71.964 19.7043C71.3638 20.5664 70.5454 21.2561 69.5088 21.7159C68.4176 22.2332 67.2719 22.4631 66.017 22.4631ZM64.9258 12.5197C65.0349 12.5197 64.7621 12.5197 64.2165 12.5197C63.6164 12.5197 62.4161 12.5197 60.561 12.5197C58.706 12.5197 56.7964 12.5197 54.9414 12.4622C54.1776 12.4622 53.5229 12.4622 52.9227 12.4622C52.3771 12.4622 51.8861 12.4622 51.5587 12.4622V10.8529H65.4168C66.5626 10.8529 67.4901 10.6805 68.1994 10.2781C68.9086 9.8758 69.3451 9.41599 69.6179 8.84122C69.8907 8.26646 69.9998 7.74917 69.9998 7.17441C69.9998 6.65712 69.8361 6.13983 69.5633 5.62255C69.2906 5.10526 68.7995 4.64545 68.1448 4.24311C67.4901 3.84078 66.6171 3.66835 65.526 3.66835H51.5587L51.2859 1.94405H57.7785C59.4699 1.94405 60.9975 1.94405 62.3615 1.94405C63.7255 1.94405 64.7621 1.94405 65.4714 1.94405C66.6171 1.94405 67.7083 2.17396 68.6358 2.57629C69.6179 2.97863 70.3272 3.61087 70.9273 4.41554C71.5275 5.22021 71.7457 6.13983 71.8003 7.23189C71.8003 8.26646 71.4729 9.18608 70.8182 9.99075C70.1635 10.7954 69.2906 11.4851 68.2539 11.945C67.2173 12.2898 66.1261 12.5197 64.9258 12.5197Z" fill="black"/>
<path d="M82.3846 1.8291L79.493 22.4631H77.7471L80.6387 1.8291H82.3846ZM98.9707 15.1636V16.9454H79.9294V15.1636H98.9707ZM97.6067 1.8291V3.61087H81.5117V1.8291H97.6067ZM101.262 22.4631H99.5163L96.6247 1.8291H98.3706L101.262 22.4631Z" fill="black"/>
<path d="M115.502 23.1528C113.865 23.1528 112.229 22.9804 110.537 22.6355C108.846 22.2907 107.373 21.8309 106.173 21.2561V19.1295H106.445C107.591 19.7617 109.01 20.279 110.646 20.6239C112.283 21.0262 113.92 21.1986 115.502 21.1986C117.63 21.1986 119.376 20.9687 120.74 20.5664C122.104 20.1641 123.086 19.5893 123.686 18.8421C124.286 18.1524 124.614 17.2903 124.614 16.3706C124.614 15.6809 124.45 15.1062 124.068 14.5889C123.686 14.0716 123.141 13.7267 122.431 13.4394C121.722 13.152 120.795 12.9796 119.703 12.9221C119.049 12.8646 118.394 12.8071 117.685 12.7497C116.975 12.6922 116.212 12.6347 115.448 12.5772C114.902 12.5197 114.411 12.5197 113.92 12.4623C113.429 12.4048 112.938 12.4048 112.501 12.3473C111.192 12.2324 110.046 12.0025 109.064 11.6001C108.082 11.1978 107.318 10.623 106.773 9.81837C106.227 9.07118 105.954 8.09408 105.954 7.00204C105.954 5.79504 106.336 4.70299 107.1 3.78337C107.864 2.86375 109.01 2.17404 110.483 1.71423C112.01 1.25442 113.811 0.967041 115.993 0.967041C117.084 0.967041 118.176 1.08199 119.321 1.25442C120.467 1.42685 121.504 1.65675 122.486 1.94414C123.468 2.23152 124.177 2.5189 124.723 2.7488V4.58804H124.505C123.522 4.07075 122.268 3.66842 120.74 3.32356C119.212 2.97871 117.63 2.80628 115.993 2.80628C114.029 2.80628 112.447 2.97871 111.192 3.38104C109.937 3.7259 109.064 4.24318 108.519 4.87542C107.973 5.50766 107.7 6.19737 107.7 7.00204C107.7 7.74923 107.864 8.32399 108.246 8.84127C108.628 9.35856 109.173 9.70341 109.937 9.9908C110.646 10.2782 111.574 10.4506 112.611 10.5081C112.938 10.5081 113.265 10.5656 113.647 10.5656C114.029 10.5656 114.357 10.623 114.738 10.623C115.557 10.6805 116.43 10.738 117.303 10.7955C118.176 10.8529 118.994 10.9104 119.812 11.0254C121.34 11.1403 122.65 11.4277 123.632 11.8875C124.614 12.3473 125.323 12.9221 125.814 13.6693C126.25 14.4165 126.523 15.2786 126.523 16.3132C126.523 17.6926 126.141 18.8996 125.323 19.8767C124.505 20.8538 123.304 21.6585 121.613 22.1757C119.922 22.8655 117.903 23.1528 115.502 23.1528Z" fill="black"/>
<path d="M149.384 1.8291V3.61087H130.452V1.8291H149.384ZM139.072 1.8291H140.818V22.4631H139.072V1.8291Z" fill="black"/>
<path d="M154.512 1.8291H156.258V22.4631H154.512V1.8291Z" fill="black"/>
<path d="M166.515 1.8291L163.624 22.4631H161.878L164.77 1.8291H166.515ZM183.102 15.1636V16.9454H164.06V15.1636H183.102ZM181.738 1.8291V3.61087H165.643V1.8291H181.738ZM185.393 22.4631H183.647L180.756 1.8291H182.501L185.393 22.4631Z" fill="black"/>
<path d="M211.254 1.8291H213V22.4631H206.671L195.65 3.61087H192.759V22.4631H191.013V1.8291H196.741L207.762 20.6814H211.254V1.8291Z" fill="black"/>
<path d="M46.7028 56.9482H41.4651L38.137 36.3148H39.8829L42.9382 55.1665H46.921L48.9943 39.246H53.6319L55.7597 55.1665H59.7425L62.7979 36.3148H64.5438L61.2156 56.9482H57.8329H60.7792H54.1775L52.0496 41.0277H50.4674L48.3396 56.9482H44.9023H46.7028Z" fill="black"/>
<path d="M70.1089 36.3148H71.8547V56.9482H70.1089V36.3148Z" fill="black"/>
<path d="M98.3706 36.3148H100.117V56.9482H93.7876L82.8212 38.0965H79.9295V56.9482H78.1836V36.3148H83.9123L94.8788 55.1665H98.3706V36.3148Z" fill="black"/>
<path d="M124.123 36.3148V38.0965H105.19V36.3148H124.123ZM113.811 36.3148H115.557V56.9482H113.811V36.3148Z" fill="black"/>
<path d="M129.197 36.3148H130.943V56.9482H129.197V36.3148ZM143.873 45.5683V47.35H130.615V45.5683H143.873ZM148.183 36.3148V38.0965H130.67V36.3148H148.183ZM148.183 55.1665V56.9482H130.67V55.1665H148.183Z" fill="black"/>
<path d="M154.185 36.315H155.931V56.9489H154.185V36.315ZM164.933 50.0518C164.879 50.0518 164.824 50.0518 164.824 50.1092C164.77 50.1667 164.77 50.2242 164.715 50.2242C164.66 50.2817 164.606 50.3966 164.606 50.3966C164.551 50.4541 164.497 50.4541 164.442 50.4541H155.767V48.6723H165.37C166.897 48.6723 168.261 48.4424 169.407 47.9826C170.553 47.5228 171.426 46.8906 172.026 46.0859C172.626 45.2813 172.954 44.3617 172.954 43.3271C172.954 41.5453 172.353 40.2234 171.098 39.3613C169.844 38.4416 168.043 37.9818 165.697 37.9818H155.876L155.658 36.2576H160.187C161.223 36.2576 162.26 36.2576 163.187 36.2576C164.115 36.2576 164.933 36.2576 165.643 36.2576C167.498 36.2576 169.134 36.5449 170.498 37.1197C171.862 37.6945 172.954 38.5566 173.663 39.5912C174.427 40.6832 174.754 41.8902 174.754 43.3271C174.754 44.4766 174.372 45.5686 173.608 46.6032C172.844 47.6378 171.753 48.4424 170.28 49.0747C168.807 49.7069 166.897 50.1092 164.933 50.0518ZM172.79 48.7298V50.5116H163.897V48.7298H172.79ZM171.044 48.7298H172.899L175.463 56.9489H173.608L171.044 48.7298Z" fill="black"/>
</svg>
