<svg width="46" height="42" viewBox="0 0 46 42" fill="none" xmlns="http://www.w3.org/2000/svg">
<g clip-path="url(#clip0)">
<path d="M36.8 36.7C36.8 36.7 31.3 32.3 28.6 33.7C25.9 35.1 25.4 42 25.4 42C25.4 42 21.8 35.6 19 34.7C16.2 33.8 7.6 42 7.6 42C7.6 42 11.9 31.7 10.5 29.1C9.1 26.5 0 25 0 25C0 25 9.5 21.9 10.4 19C11.2 16.1 4.9 8.3 4.9 8.3C4.9 8.3 14.8 14.8 17.5 13.4C20.2 12 20.1 0 20.1 0C20.1 0 23.6 11.9 26.5 12.8C29.4 13.6 36.8 4.9 36.8 4.9C36.8 4.9 32.3 13.9 33.7 16.5C35.1 19.1 45.1 20.2 45.1 20.2C45.1 20.2 34.6 22.1 33.8 25C32.9 27.8 36.8 36.7 36.8 36.7Z" fill="#3663DC"/>
<path d="M14 26C15.5 29 23.5 33.5 28.5 27.5" stroke="white" stroke-width="2"/>
<circle cx="18" cy="19" r="2" fill="white"/>
<circle cx="26" cy="20" r="2" fill="white"/>
</g>
<defs>
<clipPath id="clip0">
<rect width="45.1" height="42" fill="white"/>
</clipPath>
</defs>
</svg>
